<svg width="1440" height="378" viewBox="0 0 1440 378" fill="none" xmlns="http://www.w3.org/2000/svg">
<g clip-path="url(#clip0_1_2)">
<rect width="1440" height="378" fill="white"/>
<path fill-rule="evenodd" clip-rule="evenodd" d="M-4.57603 264.048L55.424 213.648C115.424 163.248 235.424 109.825 355.424 109.825C475.424 109.825 595.424 199.248 715.424 213.648C835.424 228.048 955.424 120.048 1075.42 62.4483C1195.42 4.8483 1315.42 -38.3517 1375.42 -59.9517L1435.42 -81.5517V-167.952H1375.42C1315.42 -167.952 1195.42 -167.952 1075.42 -167.952C955.424 -167.952 835.424 -167.952 715.424 -167.952C595.424 -167.952 475.424 -167.952 355.424 -167.952C235.424 -167.952 115.424 -167.952 55.424 -167.952H-4.57603V264.048Z" fill="url(#paint0_linear_1_2)" fill-opacity="0.9"/>
<path fill-rule="evenodd" clip-rule="evenodd" d="M1463.97 -18.8761L1402.78 15.9208C1341.59 50.7176 1219.21 120.311 1096.83 148.149C974.453 175.986 852.075 162.068 729.696 134.23C607.317 106.393 484.939 64.6364 362.56 71.5958C240.181 78.5551 117.803 134.23 56.6133 162.068L-4.57605 189.905V-144.145H56.6133C117.803 -144.145 240.181 -144.145 362.56 -144.145C484.939 -144.145 607.317 -144.145 729.696 -144.145C852.075 -144.145 974.453 -144.145 1096.83 -144.145C1219.21 -144.145 1341.59 -144.145 1402.78 -144.145H1463.97V-18.8761Z" fill="url(#paint1_linear_1_2)" fill-opacity="0.83"/>
<path fill-rule="evenodd" clip-rule="evenodd" d="M1792.81 181.602L1716.19 153.505C1639.56 126.686 1486.31 71.7708 1333.05 34.7348C1179.8 -2.30119 1026.55 -20.1806 873.297 34.7348C720.044 89.6503 566.792 218.638 413.539 245.457C260.287 273.553 107.034 199.481 30.408 163.722L-46.2183 126.686V-128.129H30.408C107.034 -128.129 260.287 -128.129 413.539 -128.129C566.792 -128.129 720.044 -128.129 873.297 -128.129C1026.55 -128.129 1179.8 -128.129 1333.05 -128.129C1486.31 -128.129 1639.56 -128.129 1716.19 -128.129H1792.81V181.602Z" fill="url(#paint2_linear_1_2)" fill-opacity="0.76"/>
</g>
<defs>
<linearGradient id="paint0_linear_1_2" x1="1435.42" y1="137.281" x2="-4.57602" y2="-114.401" gradientUnits="userSpaceOnUse">
<stop stop-color="#009DD9"/>
<stop offset="1" stop-color="#00622C"/>
</linearGradient>
<linearGradient id="paint1_linear_1_2" x1="1400.26" y1="-68.6404" x2="50.3362" y2="100.673" gradientUnits="userSpaceOnUse">
<stop stop-color="#00622C"/>
<stop offset="1" stop-color="#03495C" stop-opacity="0.67"/>
</linearGradient>
<linearGradient id="paint2_linear_1_2" x1="1093.67" y1="-205.921" x2="-183.041" y2="416.419" gradientUnits="userSpaceOnUse">
<stop offset="0.158392" stop-color="#00622C"/>
<stop offset="1" stop-color="#FF9800"/>
</linearGradient>
<clipPath id="clip0_1_2">
<rect width="1440" height="378" fill="white"/>
</clipPath>
</defs>
</svg>
